2.2Hzhigh_3min_grf.mot
version=1
nRows=17
nColumns 19
inDegrees=yes
endheader
time	1_ground_force_vx	1_ground_force_vy	1_ground_force_vz	1_ground_force_px	1_ground_force_py	1_ground_force_pz	1_ground_torque_x	1_ground_torque_y	1_ground_torque_z	2_ground_force_vx	2_ground_force_vy	2_ground_force_vz	2_ground_force_px	2_ground_force_py	2_ground_force_pz	2_ground_torque_x	2_ground_torque_y	2_ground_torque_z
            1.253500	           53.866216	          200.480590	           -2.713460	           -0.156914	            0.006241	           -0.406269	            0.169875	            0.632247	           -0.008557	          -64.840602	          192.809423	          -14.301117	           -0.090542	            0.006104	           -0.682865	           -0.306460	            0.911288	           -0.067592
            1.254000	           53.495945	          207.334547	           -3.600296	           -0.156173	            0.006240	           -0.405942	            0.106266	            0.411855	           -0.007152	          -65.131942	          195.930218	          -11.849566	           -0.091209	            0.006108	           -0.684727	           -0.426182	            1.282043	           -0.077536
            1.254500	           53.356748	          212.743670	           -3.851901	           -0.157072	            0.006242	           -0.406452	           -0.036129	           -0.144054	            0.002608	          -64.766208	          198.686440	           -9.775033	           -0.091889	            0.006110	           -0.685868	           -0.448462	            1.375767	           -0.067685
            1.255000	           53.036743	          220.310834	           -2.901522	           -0.157486	            0.006240	           -0.406097	           -0.147151	           -0.611257	            0.008050	          -63.509881	          201.263576	           -8.217745	           -0.091407	            0.006109	           -0.685333	           -0.429078	            1.359753	           -0.055520
            1.255500	           52.167251	          227.516378	           -1.722044	           -0.157397	            0.006242	           -0.406424	           -0.137982	           -0.601780	            0.004555	          -61.183094	          205.689585	           -7.639834	           -0.091584	            0.006107	           -0.684959	           -0.315057	            1.059181	           -0.039341
            1.256000	           51.114328	          235.082417	           -0.540565	           -0.157292	            0.006240	           -0.405993	           -0.028779	           -0.132359	            0.000304	          -58.725262	          212.695837	           -7.522066	           -0.093427	            0.006101	           -0.685023	           -0.226081	            0.818837	           -0.028958
            1.256500	           49.463743	          240.128358	           -0.239690	           -0.157530	            0.006240	           -0.405987	            0.081945	            0.397812	           -0.000397	          -56.267951	          219.885088	           -7.075144	           -0.095264	            0.006095	           -0.685284	           -0.154284	            0.602914	           -0.019400
            1.257000	           48.083773	          247.704952	           -1.533634	           -0.157188	            0.006239	           -0.405907	            0.106182	            0.547000	           -0.003387	          -54.422664	          227.990029	           -5.826899	           -0.097640	            0.006088	           -0.685706	           -0.194723	            0.815742	           -0.020848
            1.257500	           45.924449	          254.740795	           -2.873818	           -0.156128	            0.006244	           -0.406894	            0.018607	            0.103211	           -0.001164	          -52.204907	          236.830239	           -3.825337	           -0.099181	            0.006089	           -0.687344	           -0.214625	            0.973657	           -0.015727
            1.258000	           44.499009	          262.136525	           -4.030854	           -0.155722	            0.006247	           -0.407572	           -0.102136	           -0.601667	            0.009252	          -49.610898	          245.302486	           -1.543679	           -0.100267	            0.006087	           -0.688072	           -0.263035	            1.300584	           -0.008185
            1.258500	           42.801153	          271.870347	           -3.939048	           -0.156931	            0.006242	           -0.406433	           -0.170656	           -1.083996	            0.015706	          -46.359810	          253.409991	            0.407889	           -0.101328	            0.006086	           -0.688755	           -0.251955	            1.377225	            0.002217
            1.259000	           41.471257	          279.980306	           -3.488262	           -0.156516	            0.006242	           -0.406453	           -0.143383	           -0.968008	            0.012060	          -43.106240	          260.782409	            1.934476	           -0.102524	            0.006081	           -0.688715	           -0.206662	            1.250253	            0.009274
            1.259500	           40.234886	          289.168278	           -2.207659	           -0.156175	            0.006243	           -0.406819	           -0.040121	           -0.288349	            0.002201	          -39.904401	          269.445545	            2.949473	           -0.104180	            0.006078	           -0.689443	           -0.142619	            0.963005	            0.010541
            1.260000	           38.674616	          298.001025	           -2.165916	           -0.156707	            0.006243	           -0.406686	            0.049057	            0.378001	           -0.002747	          -37.025782	          276.817782	            4.147723	           -0.105213	            0.006075	           -0.689705	           -0.110129	            0.823364	            0.012337
            1.260500	           36.561619	          307.378758	           -3.129318	           -0.156951	            0.006240	           -0.406023	            0.040086	            0.337009	           -0.003431	          -33.730726	          285.663891	            5.585690	           -0.106579	            0.006072	           -0.690338	           -0.088738	            0.751519	            0.014695
            1.261000	           34.719714	          317.303995	           -5.650185	           -0.156292	            0.006241	           -0.406319	           -0.012223	           -0.111703	            0.001989	          -30.950308	          294.323663	            7.117075	           -0.108182	            0.006071	           -0.691504	           -0.093546	            0.889584	            0.021511
            1.261500	           32.464495	          328.131495	           -8.395443	           -0.156620	            0.006243	           -0.406788	           -0.085192	           -0.861071	            0.022031	          -27.973319	          300.585810	            9.859970	           -0.108814	            0.006069	           -0.691707	           -0.110443	            1.186764	            0.038929
